<svg width="16" height="16" viewBox="0 0 16 16" fill="none" xmlns="http://www.w3.org/2000/svg">
<path d="M8.00002 13.3333V10L5.66669 7.66667L8.33335 5L10.6667 7.33333H13.6667" stroke="black" stroke-linecap="round" stroke-linejoin="round"/>
<path d="M13.6095 2.39053C14.1302 2.91122 14.1302 3.75545 13.6095 4.27614C13.0888 4.79684 12.2445 4.79684 11.7239 4.27614C11.2031 3.75545 11.2031 2.91122 11.7239 2.39053C12.2445 1.86983 13.0888 1.86983 13.6095 2.39053Z" stroke="black" stroke-linecap="round" stroke-linejoin="round"/>
<path d="M14.6667 12C14.6667 13.1046 13.7713 14 12.6667 14C11.5621 14 10.6667 13.1046 10.6667 12C10.6667 10.8954 11.5621 10 12.6667 10C13.7713 10 14.6667 10.8954 14.6667 12Z" stroke="black" stroke-linecap="round" stroke-linejoin="round"/>
<path d="M5.33331 12C5.33331 13.1046 4.43788 14 3.33331 14C2.22875 14 1.33331 13.1046 1.33331 12C1.33331 10.8954 2.22875 10 3.33331 10C4.43788 10 5.33331 10.8954 5.33331 12Z" stroke="black" stroke-linecap="round" stroke-linejoin="round"/>
</svg>
