<svg width="28" height="35" viewBox="0 0 28 35" fill="none" xmlns="http://www.w3.org/2000/svg">
<path d="M16.4917 0C12.5952 10.4648 21.2046 10.8359 25.9516 17.4902C29.2574 22.1243 29.814 32.3223 17.9019 34.9941C22.9116 32.3594 23.9878 24.7148 18.5698 19.9277C19.9687 24.5703 17.3983 27.546 14.1667 26.4535C10.9995 25.3828 8.94174 27.6574 8.99562 30.2441C9.03273 32.0254 9.58937 33.3984 11.5562 34.4004C11.5562 34.4004 0.683121 32.3223 0.683121 21.709C0.683121 15.252 6.43507 14.3567 3.54054 8.94336C6.99171 9.24023 8.18333 11.4957 7.84523 15.2148C7.62257 17.6641 10.1831 19.3463 12.0757 18.2214C13.613 17.3077 13.5601 15.5071 12.2241 14.1758C9.37977 11.3413 8.25343 4.86133 16.4917 0Z" fill="url(#paint0_linear_48_227)"/>
<defs>
<linearGradient id="paint0_linear_48_227" x1="14.3416" y1="0" x2="14.3416" y2="34.9941" gradientUnits="userSpaceOnUse">
<stop stop-color="#F9C123"/>
<stop offset="1" stop-color="#F98A23"/>
</linearGradient>
</defs>
</svg>
