<svg width="28" height="35" viewBox="0 0 28 35" fill="none" xmlns="http://www.w3.org/2000/svg">
<path d="M15.8081 0C11.9116 10.4648 20.521 10.8359 25.268 17.4902C28.5738 22.1243 29.1304 32.3223 17.2183 34.9941C22.228 32.3594 23.3042 24.7148 17.8862 19.9277C19.2851 24.5703 16.7147 27.546 13.4831 26.4535C10.3159 25.3828 8.25814 27.6574 8.31203 30.2441C8.34913 32.0254 8.90577 33.3984 10.8726 34.4004C10.8726 34.4004 -0.000473022 32.3223 -0.000473022 21.709C-0.000473022 15.252 5.75148 14.3567 2.85695 8.94336C6.30812 9.24023 7.49974 11.4957 7.16163 15.2148C6.93898 17.6641 9.49952 19.3463 11.3921 18.2214C12.9294 17.3077 12.8765 15.5071 11.5405 14.1758C8.69618 11.3413 7.56984 4.86133 15.8081 0Z" fill="url(#paint0_linear_1_211)"/>
<defs>
<linearGradient id="paint0_linear_1_211" x1="13.658" y1="0" x2="13.658" y2="34.9941" gradientUnits="userSpaceOnUse">
<stop stop-color="#F9C123"/>
<stop offset="1" stop-color="#F98A23"/>
</linearGradient>
</defs>
</svg>
