<svg width="24" height="24" viewBox="0 0 24 24" fill="none" xmlns="http://www.w3.org/2000/svg">
<path d="M22 8H19M2 8H13H2Z" stroke="#141316" stroke-width="2" stroke-linecap="round" stroke-linejoin="round"/>
<path d="M2 16H5M22 16H11H22Z" stroke="#141316" stroke-width="2" stroke-linecap="round" stroke-linejoin="round"/>
<path d="M16 11C17.6569 11 19 9.65685 19 8C19 6.34315 17.6569 5 16 5C14.3431 5 13 6.34315 13 8C13 9.65685 14.3431 11 16 11Z" stroke="#141316" stroke-width="2" stroke-linecap="round" stroke-linejoin="round"/>
<path d="M8 19C6.34315 19 5 17.6569 5 16C5 14.3431 6.34315 13 8 13C9.65685 13 11 14.3431 11 16C11 17.6569 9.65685 19 8 19Z" stroke="#141316" stroke-width="2" stroke-linecap="round" stroke-linejoin="round"/>
</svg>
