<svg width="11" height="10" viewBox="0 0 11 10" fill="none" xmlns="http://www.w3.org/2000/svg">
<path d="M4.55559 0.728443C4.86715 -0.166524 6.13284 -0.166525 6.44441 0.728441L6.95018 2.18128C7.09009 2.58318 7.46903 2.85251 7.89459 2.85251H9.37645C10.3618 2.85251 10.7532 4.12715 9.93769 4.68016L8.86022 5.4108C8.48534 5.66501 8.32814 6.13946 8.47705 6.56723L8.91613 7.82847C9.23268 8.73777 8.20737 9.52527 7.41048 8.9849L6.06124 8.06997C5.72236 7.84017 5.27764 7.84017 4.93876 8.06997L3.58952 8.9849C2.79262 9.52528 1.76732 8.73777 2.08387 7.82847L2.52295 6.56723C2.67186 6.13946 2.51466 5.66501 2.13978 5.4108L1.06231 4.68016C0.246785 4.12715 0.638205 2.85251 1.62355 2.85251H3.10541C3.53097 2.85251 3.9099 2.58318 4.04982 2.18128L4.55559 0.728443Z" fill="#C4C4C4"/>
</svg>
